<svg xmlns="http://www.w3.org/2000/svg" viewBox="0 0 10 7">
  <defs>
    <style>
      .cls-1 {
        fill: #fff;
      }
    </style>
  </defs>
  <title>Mute</title>
  <g id="Слой_2" data-name="Слой 2">
    <g id="Слой_1-2" data-name="Слой 1">
      <g>
        <polygon class="cls-1" points="8 2 8 1 7 1 7 0 6 0 6 7 7 7 7 6 8 6 8 5 10 5 10 2 8 2"/>
        <rect class="cls-1" x="4" y="5" width="1" height="1"/>
        <rect class="cls-1" x="3" y="4" width="1" height="1"/>
        <rect class="cls-1" x="2" y="3" width="1" height="1"/>
        <rect class="cls-1" x="3" y="2" width="1" height="1"/>
        <rect class="cls-1" x="4" y="1" width="1" height="1"/>
        <rect class="cls-1" x="1" y="4" width="1" height="1"/>
        <rect class="cls-1" y="5" width="1" height="1"/>
        <rect class="cls-1" x="1" y="2" width="1" height="1"/>
        <rect class="cls-1" y="1" width="1" height="1"/>
      </g>
    </g>
  </g>
</svg>
